<svg xmlns="http://www.w3.org/2000/svg" xmlns:xlink="http://www.w3.org/1999/xlink" width="669.33" height="669.33" viewBox="0 0 669.33 669.33">
  <defs></defs>
  <g>
  <path d="M334.67 664.83C246.48 664.83 163.57 630.49 101.21 568.13 38.85 505.77 4.5 422.86 4.5 334.67 4.5 246.48 38.84 163.57 101.2 101.21 163.56 38.85 246.48 4.5 334.67 4.5 422.86 4.5 505.77 38.84 568.13 101.2 630.49 163.56 664.83 246.47 664.83 334.66 664.83 422.85 630.49 505.76 568.13 568.12 505.77 630.48 422.86 664.83 334.67 664.83Z" fill="#00A19A"></path><path d="M334.67 9C378.64 9 421.29 17.61 461.43 34.59 500.21 50.99 535.04 74.48 564.95 104.39 594.86 134.3 618.34 169.13 634.75 207.91 651.73 248.05 660.34 290.7 660.34 334.67 660.34 378.64 651.73 421.29 634.75 461.43 618.35 500.21 594.86 535.04 564.95 564.95 535.04 594.86 500.21 618.34 461.43 634.75 421.29 651.73 378.64 660.34 334.67 660.34 290.7 660.34 248.05 651.73 207.91 634.75 169.13 618.35 134.3 594.86 104.39 564.95 74.48 535.04 51 500.21 34.59 461.43 17.61 421.28 9 378.63 9 334.67 9 290.7 17.61 248.05 34.59 207.91 50.99 169.13 74.48 134.3 104.39 104.39 134.3 74.48 169.13 51 207.91 34.59 248.05 17.61 290.7 9 334.67 9M334.67 0C149.84 0 0 149.84 0 334.67 0 519.5 149.84 669.33 334.67 669.33 519.5 669.33 669.34 519.49 669.34 334.66 669.33 149.84 519.5 0 334.67 0L334.67 0Z" fill="#FFFFFF"></path></g><g><path d="M645.6 268.34C533.63 207.42 419.18 235.86 369.6 253.56 353.09 259.45 335.17 259.45 318.67 253.56 269.1 235.86 154.65 207.42 42.67 268.34 42.67 268.34 40.36 304 68.07 318.88 68.07 318.88 68.07 399.95 121.18 441.52 174.29 483.09 291.28 474.62 308.98 378.41 308.98 378.41 311.7 358.72 320.29 341.82 330.03 322.66 358.22 322.66 367.97 341.82 376.56 358.72 379.28 378.41 379.28 378.41 396.98 474.62 513.98 483.09 567.09 441.52 620.2 399.95 620.2 318.88 620.2 318.88 647.92 304 645.6 268.34 645.6 268.34M271.45 421.5C236.81 454.98 162.92 455.75 131.36 431.5 99.8 407.26 69.91 327.08 91.98 282.44 114.04 237.8 246.44 253.7 277.99 265.25 309.54 276.79 304.54 299.88 304.54 299.88 304.54 299.88 306.09 388.02 271.45 421.5M556.92 431.51C525.36 455.76 451.47 454.99 416.83 421.51 382.2 388.03 383.74 299.89 383.74 299.89 383.74 299.89 378.74 276.8 410.29 265.26 441.85 253.71 574.24 237.81 596.3 282.45 618.36 327.09 588.47 407.27 556.92 431.51" fill="#FFFFFF"></path><path d="M523.93 303.61C523.93 319.4 511.13 332.19 495.35 332.19 479.56 332.19 466.77 319.4 466.77 303.61 466.77 287.82 479.56 275.03 495.35 275.03 511.13 275.02 523.93 287.82 523.93 303.61" fill="#FFFFFF"></path><path d="M523.93 397.52C523.93 413.31 511.13 426.1 495.35 426.1 479.56 426.1 466.77 413.31 466.77 397.52 466.77 381.73 479.56 368.94 495.35 368.94 511.13 368.93 523.93 381.73 523.93 397.52" fill="#FFFFFF"></path><path d="M542.3 379.14C526.51 379.14 513.72 366.34 513.72 350.56 513.72 334.77 526.51 321.97 542.3 321.97 558.09 321.97 570.88 334.77 570.88 350.56 570.89 366.34 558.09 379.14 542.3 379.14" fill="#FFFFFF"></path><path d="M448.39 379.14C432.6 379.14 419.81 366.34 419.81 350.56 419.81 334.77 432.6 321.97 448.39 321.97 464.18 321.97 476.97 334.77 476.97 350.56 476.98 366.34 464.18 379.14 448.39 379.14" fill="#FFFFFF"></path><path d="M260.31 328.1 224.07 328.1C219.42 328.1 215.65 324.33 215.65 319.68L215.65 283.44C215.65 278.79 211.88 275.02 207.23 275.02L179.16 275.02C174.51 275.02 170.73 278.79 170.73 283.44L170.73 319.68C170.73 324.33 166.96 328.1 162.31 328.1L126.07 328.1C121.42 328.1 117.65 331.87 117.65 336.53L117.65 364.6C117.65 369.25 121.42 373.02 126.07 373.02L162.31 373.02C166.96 373.02 170.73 376.79 170.73 381.44L170.73 417.68C170.73 422.33 174.5 426.1 179.16 426.1L207.23 426.1C211.88 426.1 215.65 422.33 215.65 417.68L215.65 381.44C215.65 376.79 219.42 373.02 224.07 373.02L260.31 373.02C264.96 373.02 268.73 369.25 268.73 364.6L268.73 336.53C268.73 331.88 264.96 328.1 260.31 328.1" fill="#FFFFFF"></path>
  </g>
</svg>